<?xml version="1.0" standalone="no"?>
<!DOCTYPE svg PUBLIC "-//W3C//DTD SVG 20010904//EN"
 "http://www.w3.org/TR/2001/REC-SVG-20010904/DTD/svg10.dtd">
<svg version="1.0" xmlns="http://www.w3.org/2000/svg"
 width="897.000000pt" height="182.000000pt" viewBox="0 0 897.000000 182.000000"
 preserveAspectRatio="xMidYMid meet">

<g transform="translate(0.000000,182.000000) scale(0.100000,-0.100000)"
fill="#000000" stroke="none">
<path d="M7080 1415 c0 -84 0 -85 25 -85 23 0 25 -3 25 -50 l0 -50 -50 0 c-47
0 -50 -2 -50 -25 0 -20 -5 -25 -25 -25 -23 0 -25 -3 -25 -50 l0 -50 43 -1 c52
-1 40 -5 -35 -14 l-58 -6 0 -215 0 -214 220 0 220 0 0 60 c0 57 1 60 25 60 23
0 25 -4 25 -41 l0 -40 48 3 c40 3 47 6 50 26 2 15 10 22 25 22 20 0 22 4 19
50 l-4 50 56 0 56 0 0 -35 0 -35 95 0 95 0 0 375 0 375 -390 0 -390 0 0 -85z
m270 -135 l0 -50 -55 0 -55 0 0 43 c0 24 3 47 7 50 3 4 28 7 55 7 l48 0 0 -50z
m210 0 l0 -50 -50 0 -50 0 0 50 0 50 50 0 50 0 0 -50z m-320 -80 c0 -17 -7
-20 -50 -20 -43 0 -50 3 -50 20 0 17 7 20 50 20 43 0 50 -3 50 -20z m210 0 c0
-17 -7 -20 -50 -20 -43 0 -50 3 -50 20 0 17 7 20 50 20 43 0 50 -3 50 -20z
m218 -27 l-3 -48 -50 0 -50 0 -3 48 -3 47 56 0 56 0 -3 -47z m-518 -43 l0 -40
-40 0 -40 0 0 40 0 40 40 0 40 0 0 -40z m180 0 l0 -40 -40 0 -40 0 0 40 0 40
40 0 40 0 0 -40z m170 0 c0 -39 -1 -40 -35 -40 -34 0 -35 1 -35 40 0 39 1 40
35 40 34 0 35 -1 35 -40z m60 -60 l0 -50 56 0 55 0 -3 -47 -3 -48 -50 0 -50 0
-3 48 c-3 39 -6 47 -23 47 -14 0 -19 7 -19 28 0 15 -3 37 -6 50 -5 19 -2 22
20 22 25 0 26 -3 26 -50z m-337 3 c-13 -2 -33 -2 -45 0 -13 2 -3 4 22 4 25 0
35 -2 23 -4z m197 -28 c0 -31 -3 -35 -25 -35 -21 0 -25 5 -25 29 0 20 -6 31
-17 34 -10 3 1 5 25 6 42 1 42 1 42 -34z m80 -80 c0 -33 -2 -35 -35 -35 -33 0
-35 2 -35 35 0 33 2 35 35 35 33 0 35 -2 35 -35z m-82 -82 c-2 -31 -7 -39 -25
-41 -21 -3 -23 1 -23 37 0 37 2 41 26 41 23 0 25 -3 22 -37z m142 -14 c0 -45
-2 -50 -20 -47 -12 2 -21 6 -20 11 0 4 0 25 0 47 0 33 3 40 20 40 17 0 20 -7
20 -51z m-60 -74 c0 -33 -2 -35 -35 -35 -33 0 -35 2 -35 35 0 33 2 35 35 35
33 0 35 -2 35 -35z"/>
<path d="M3211 1294 l-31 -26 0 -257 c0 -287 1 -292 68 -311 44 -12 352 -14
352 -2 0 5 -27 29 -59 55 -87 67 -124 127 -129 204 -6 95 24 149 151 268 l101
95 -211 0 -211 0 -31 -26z"/>
<path d="M3689 1233 c-127 -110 -165 -152 -192 -211 -26 -61 -12 -108 53 -173
49 -49 166 -131 214 -149 54 -20 32 9 -43 58 -113 74 -171 170 -158 264 8 62
44 106 131 163 96 62 108 75 104 112 -3 27 -6 25 -109 -64z"/>
<path d="M4030 1300 c-29 -29 -26 -74 6 -99 32 -25 44 -26 70 -6 18 14 17 15
-11 13 -43 -3 -55 8 -55 47 0 37 23 52 60 40 24 -7 27 10 4 19 -29 11 -54 6
-74 -14z"/>
<path d="M4150 1300 c-27 -27 -25 -66 5 -95 27 -28 37 -30 68 -14 30 16 37 28
37 66 0 56 -69 84 -110 43z m79 -22 c17 -46 -13 -87 -48 -68 -24 12 -29 58 -9
78 19 19 48 14 57 -10z"/>
<path d="M4290 1250 l0 -70 41 0 c46 0 51 23 6 28 -26 3 -27 6 -27 58 0 30 -4
54 -10 54 -6 0 -10 -30 -10 -70z"/>
<path d="M4402 1304 c-26 -18 -30 -74 -7 -98 51 -50 126 -7 110 65 -11 47 -60
63 -103 33z m66 -16 c20 -20 15 -66 -9 -78 -35 -19 -65 22 -48 68 9 24 38 29
57 10z"/>
<path d="M4536 1313 c-10 -10 -7 -123 4 -123 6 0 10 11 10 25 0 30 7 31 33 8
18 -17 19 -17 28 0 14 25 29 21 29 -8 0 -14 5 -25 10 -25 6 0 10 28 10 65 0
73 -12 83 -37 30 -21 -43 -37 -44 -53 -5 -14 33 -24 43 -34 33z"/>
<path d="M4690 1255 c0 -74 7 -82 66 -71 38 8 51 25 39 54 -4 9 -8 31 -9 47
-1 28 -3 30 -48 33 l-48 3 0 -66z m77 29 c2 -6 -4 -14 -13 -18 -19 -7 -47 11
-38 26 8 12 46 6 51 -8z m3 -59 c0 -21 -27 -30 -45 -15 -19 16 -10 30 21 30
15 0 24 -6 24 -15z"/>
<path d="M4820 1256 c0 -53 3 -66 15 -66 13 0 15 11 13 62 -2 38 -8 63 -15 66
-10 3 -13 -14 -13 -62z"/>
<path d="M4890 1260 c-33 -65 -33 -85 -2 -57 24 22 68 22 81 0 5 -10 13 -15
17 -11 9 9 -39 121 -54 126 -6 2 -25 -24 -42 -58z m52 -22 c-16 -16 -35 3 -26
26 6 16 8 16 22 2 13 -12 14 -18 4 -28z"/>
<path d="M5653 1182 c-19 -3 -23 -10 -23 -36 0 -41 21 -63 39 -42 7 8 11 30 9
48 -3 28 -7 32 -25 30z"/>
<path d="M3733 1121 c-88 -56 -111 -109 -79 -185 15 -37 68 -92 115 -119 l31
-18 0 25 c0 17 -9 30 -29 42 -35 21 -71 81 -71 119 0 38 36 98 71 119 16 10
29 26 29 37 0 10 -1 19 -2 19 -2 0 -31 -18 -65 -39z"/>
<path d="M5994 1086 c-45 -32 -38 -112 12 -135 26 -12 74 -5 74 10 0 5 -11 7
-25 3 -33 -8 -65 20 -65 57 0 39 26 62 62 55 21 -4 28 -2 26 7 -7 18 -60 20
-84 3z"/>
<path d="M6120 1090 c0 -5 5 -10 10 -10 6 0 10 5 10 10 0 6 -4 10 -10 10 -5 0
-10 -4 -10 -10z"/>
<path d="M6550 1090 c0 -5 5 -10 10 -10 6 0 10 5 10 10 0 6 -4 10 -10 10 -5 0
-10 -4 -10 -10z"/>
<path d="M5777 1074 c-4 -4 -4 -29 -1 -55 5 -38 2 -56 -19 -98 -15 -28 -22
-51 -17 -51 31 0 69 128 54 181 -5 17 -12 27 -17 23z"/>
<path d="M5527 1057 c-20 -50 14 -174 51 -185 7 -2 4 11 -10 34 -13 23 -24 61
-27 103 -4 43 -9 60 -14 48z"/>
<path d="M6120 1000 c0 -27 5 -50 10 -50 6 0 10 23 10 50 0 28 -4 50 -10 50
-5 0 -10 -22 -10 -50z"/>
<path d="M6192 1038 c-7 -7 -12 -27 -12 -45 0 -26 5 -35 25 -43 14 -5 33 -6
42 -2 14 5 12 8 -12 12 -26 4 -30 10 -30 35 1 24 6 31 24 33 18 3 22 0 18 -12
-4 -10 -1 -16 8 -16 8 0 15 6 15 13 0 19 -21 37 -45 37 -12 0 -26 -5 -33 -12z"/>
<path d="M6300 998 c0 -35 4 -48 13 -45 6 2 11 11 9 20 -4 23 16 57 32 57 16
0 26 -22 26 -56 0 -13 5 -24 11 -24 6 0 9 19 7 48 l-3 47 -47 1 -48 1 0 -49z"/>
<path d="M6447 1032 c-10 -10 -17 -28 -17 -40 0 -29 42 -56 72 -46 22 8 22 8
-7 14 -25 4 -30 10 -30 35 0 25 4 30 28 33 15 2 25 8 22 13 -10 15 -51 10 -68
-9z"/>
<path d="M6550 1000 c0 -27 5 -50 10 -50 6 0 10 23 10 50 0 28 -4 50 -10 50
-5 0 -10 -22 -10 -50z"/>
<path d="M6620 1040 c0 -5 11 -10 25 -10 22 0 25 -4 25 -35 0 -24 -5 -35 -14
-35 -21 0 -31 21 -15 32 11 7 9 8 -6 6 -23 -4 -33 -43 -13 -50 7 -3 28 -3 46
-1 29 5 32 8 32 42 0 20 -5 42 -12 49 -14 14 -68 16 -68 2z"/>
<path d="M6742 1038 c-20 -20 -13 -38 18 -44 17 -4 30 -13 30 -21 0 -11 -8
-14 -30 -11 -16 3 -30 1 -30 -4 0 -4 3 -8 8 -8 4 0 16 -3 28 -6 23 -6 58 21
48 37 -3 6 -17 14 -30 19 -32 12 -31 30 2 30 14 0 23 4 19 10 -9 14 -48 13
-63 -2z"/>
<path d="M3782 1018 c-27 -27 -6 -68 35 -68 29 0 48 33 33 60 -12 22 -49 27
-68 8z"/>
<path d="M4014 955 c-4 -9 16 -65 48 -133 48 -101 59 -117 81 -120 30 -4 30
-4 97 137 37 79 47 108 38 118 -23 28 -40 11 -81 -77 -22 -50 -45 -89 -50 -87
-4 1 -25 41 -46 87 -29 64 -44 86 -60 88 -12 2 -24 -3 -27 -13z"/>
<path d="M4325 948 c-3 -13 -5 -72 -3 -133 3 -107 4 -110 27 -113 13 -2 28 2
32 10 12 19 11 216 -1 239 -15 26 -48 25 -55 -3z"/>
<path d="M4446 954 c-3 -9 -6 -67 -6 -130 0 -111 1 -115 24 -125 16 -8 49 -9
92 -4 59 6 73 12 101 40 20 20 34 44 35 62 6 127 -38 173 -170 173 -54 0 -71
-3 -76 -16z m159 -59 c27 -26 34 -80 15 -115 -12 -23 -86 -48 -100 -34 -7 7
-14 109 -11 162 2 23 70 14 96 -13z"/>
<path d="M4832 957 c-19 -23 -112 -221 -112 -239 0 -29 45 -23 58 7 11 23 17
25 80 25 64 0 70 -2 80 -25 11 -25 45 -34 57 -16 3 5 -22 66 -54 135 -46 98
-64 126 -79 126 -11 0 -24 -6 -30 -13z m55 -119 c14 -32 9 -38 -34 -38 -38 0
-39 6 -16 55 18 38 29 35 50 -17z"/>
<path d="M5650 801 c0 -12 5 -21 10 -21 6 0 10 6 10 14 0 8 -4 18 -10 21 -5 3
-10 -3 -10 -14z"/>
<path d="M6940 563 c0 -18 2 -33 4 -33 9 0 13 39 5 51 -6 10 -9 4 -9 -18z"/>
<path d="M6977 578 c-2 -7 -1 -22 4 -33 6 -16 8 -14 8 13 1 33 -4 41 -12 20z"/>
<path d="M7150 566 c0 -14 5 -28 10 -31 6 -4 10 7 10 24 0 17 -4 31 -10 31 -5
0 -10 -11 -10 -24z"/>
<path d="M7193 565 c0 -14 3 -22 8 -19 5 3 9 11 9 19 0 8 -4 16 -9 19 -5 3 -8
-5 -8 -19z"/>
<path d="M7640 575 c0 -8 7 -15 15 -15 8 0 15 -5 15 -12 0 -6 3 -8 7 -5 3 4
-3 16 -15 27 -18 17 -22 18 -22 5z"/>
<path d="M7852 565 c0 -16 2 -22 5 -12 2 9 2 23 0 30 -3 6 -5 -1 -5 -18z"/>
<path d="M7031 553 c-1 -16 5 -23 17 -23 10 0 13 3 6 8 -6 4 -14 14 -17 22 -4
10 -6 8 -6 -7z"/>
<path d="M7101 554 c0 -11 3 -14 6 -6 3 7 2 16 -1 19 -3 4 -6 -2 -5 -13z"/>
<path d="M7221 554 c0 -11 3 -14 6 -6 3 7 2 16 -1 19 -3 4 -6 -2 -5 -13z"/>
<path d="M7241 554 c0 -11 3 -14 6 -6 3 7 2 16 -1 19 -3 4 -6 -2 -5 -13z"/>
<path d="M7271 554 c0 -11 3 -14 6 -6 3 7 2 16 -1 19 -3 4 -6 -2 -5 -13z"/>
<path d="M7291 554 c0 -11 3 -14 6 -6 3 7 2 16 -1 19 -3 4 -6 -2 -5 -13z"/>
<path d="M7381 554 c0 -11 3 -14 6 -6 3 7 2 16 -1 19 -3 4 -6 -2 -5 -13z"/>
<path d="M7400 561 c0 -5 7 -12 16 -15 14 -5 15 -4 4 9 -14 17 -20 19 -20 6z"/>
<path d="M7441 554 c0 -11 3 -14 6 -6 3 7 2 16 -1 19 -3 4 -6 -2 -5 -13z"/>
<path d="M7461 554 c0 -11 3 -14 6 -6 3 7 2 16 -1 19 -3 4 -6 -2 -5 -13z"/>
<path d="M7531 554 c0 -11 3 -14 6 -6 3 7 2 16 -1 19 -3 4 -6 -2 -5 -13z"/>
<path d="M7571 554 c0 -11 3 -14 6 -6 3 7 2 16 -1 19 -3 4 -6 -2 -5 -13z"/>
<path d="M7691 554 c0 -11 3 -14 6 -6 3 7 2 16 -1 19 -3 4 -6 -2 -5 -13z"/>
<path d="M7761 554 c0 -11 3 -14 6 -6 3 7 2 16 -1 19 -3 4 -6 -2 -5 -13z"/>
<path d="M7310 551 c0 -6 4 -13 10 -16 6 -3 7 1 4 9 -7 18 -14 21 -14 7z"/>
<path d="M7716 532 c-2 -4 4 -8 15 -8 10 0 19 4 19 8 0 4 -6 8 -14 8 -8 0 -17
-4 -20 -8z"/>
<path d="M6900 470 c0 -16 5 -30 10 -30 6 0 10 12 10 28 0 21 2 24 10 12 8
-13 10 -12 10 3 0 10 -8 17 -20 17 -16 0 -20 -7 -20 -30z"/>
<path d="M7315 470 c0 -16 3 -30 8 -30 4 0 7 5 7 11 0 8 4 8 13 0 11 -8 13 -4
9 22 -4 27 -6 29 -13 12 -6 -17 -8 -17 -8 -2 -2 30 -16 18 -16 -13z"/>
<path d="M7670 484 c-11 -12 -10 -18 5 -32 18 -16 18 -16 6 1 -11 14 -11 20
-1 32 7 8 10 15 7 15 -2 0 -10 -7 -17 -16z"/>
<path d="M6950 460 c0 -11 2 -20 4 -20 2 0 6 9 9 20 3 11 1 20 -4 20 -5 0 -9
-9 -9 -20z"/>
<path d="M7202 460 c0 -14 2 -19 5 -12 2 6 2 18 0 25 -3 6 -5 1 -5 -13z"/>
<path d="M7530 460 c0 -11 2 -20 4 -20 2 0 6 9 9 20 3 11 1 20 -4 20 -5 0 -9
-9 -9 -20z"/>
<path d="M7622 460 c0 -14 2 -19 5 -12 2 6 2 18 0 25 -3 6 -5 1 -5 -13z"/>
<path d="M7730 460 c0 -11 2 -20 4 -20 2 0 6 9 9 20 3 11 1 20 -4 20 -5 0 -9
-9 -9 -20z"/>
<path d="M7812 460 c0 -14 2 -19 5 -12 2 6 2 18 0 25 -3 6 -5 1 -5 -13z"/>
<path d="M7862 450 c0 -19 2 -27 5 -17 2 9 2 25 0 35 -3 9 -5 1 -5 -18z"/>
<path d="M7060 461 c0 -6 4 -13 10 -16 6 -3 7 1 4 9 -7 18 -14 21 -14 7z"/>
<path d="M7100 466 c0 -2 7 -7 16 -10 8 -3 12 -2 9 4 -6 10 -25 14 -25 6z"/>
<path d="M7371 454 c0 -11 3 -14 6 -6 3 7 2 16 -1 19 -3 4 -6 -2 -5 -13z"/>
<path d="M7436 461 c-3 -5 1 -11 9 -14 9 -4 12 -1 8 9 -6 16 -10 17 -17 5z"/>
<path d="M7247 446 c-4 -10 1 -12 14 -9 23 6 24 9 5 16 -8 3 -17 0 -19 -7z"/>
<path d="M7221 368 c1 -18 3 -25 6 -15 2 9 9 17 14 17 5 0 9 -8 10 -17 0 -12
2 -14 6 -5 3 8 -4 22 -16 33 l-21 20 1 -33z"/>
<path d="M7288 381 c-24 -23 -23 -41 2 -41 16 0 20 7 20 30 0 35 0 34 -22 11z
m12 -21 c0 -5 -4 -10 -10 -10 -5 0 -10 5 -10 10 0 6 5 10 10 10 6 0 10 -4 10
-10z"/>
<path d="M7000 373 c0 -4 5 -15 10 -23 8 -13 10 -13 10 2 0 9 -4 20 -10 23 -5
3 -10 3 -10 -2z"/>
<path d="M7030 368 c0 -9 5 -20 10 -23 13 -8 13 5 0 25 -8 13 -10 13 -10 -2z"/>
<path d="M7070 375 c0 -5 5 -17 10 -25 8 -12 10 -12 10 -1 0 11 3 11 17 0 14
-12 16 -12 11 1 -2 8 -11 15 -19 15 -8 0 -17 5 -21 10 -5 7 -8 7 -8 0z"/>
<path d="M7140 368 c0 -9 5 -20 10 -23 13 -8 13 5 0 25 -8 13 -10 13 -10 -2z"/>
<path d="M7320 372 c0 -5 7 -15 15 -22 8 -7 15 -9 15 -6 0 4 -7 14 -15 22 -8
9 -15 11 -15 6z"/>
<path d="M7362 350 c0 -19 2 -27 5 -17 2 9 2 25 0 35 -3 9 -5 1 -5 -18z"/>
<path d="M7384 360 c0 -13 4 -16 10 -10 7 7 7 13 0 20 -6 6 -10 3 -10 -10z"/>
<path d="M7411 367 c-2 -29 22 -47 42 -32 9 7 17 18 17 26 0 8 6 6 15 -7 13
-16 14 -16 9 -1 -3 9 -1 17 4 17 6 0 13 -8 16 -17 4 -14 4 -14 3 2 -2 14 -11
20 -35 22 -20 2 -31 -1 -27 -7 9 -15 -4 -30 -20 -24 -8 3 -16 13 -18 22 -4 15
-5 14 -6 -1z"/>
<path d="M7531 363 c-1 -17 5 -23 19 -23 14 0 20 6 19 23 -1 16 -2 18 -6 5 -2
-10 -8 -18 -13 -18 -5 0 -11 8 -13 18 -4 13 -5 11 -6 -5z"/>
<path d="M7580 348 c0 -23 3 -29 9 -19 5 8 7 20 4 28 -3 7 -1 13 5 13 6 0 13
-6 15 -12 3 -8 6 -6 6 5 1 11 -6 17 -19 17 -16 0 -20 -7 -20 -32z"/>
<path d="M7657 373 c-11 -10 -8 -33 4 -33 5 0 7 5 3 11 -3 6 0 15 7 20 8 5 9
9 3 9 -6 0 -14 -3 -17 -7z"/>
<path d="M7692 360 c0 -14 2 -19 5 -12 2 6 2 18 0 25 -3 6 -5 1 -5 -13z"/>
<path d="M7712 360 c0 -14 2 -19 5 -12 2 6 2 18 0 25 -3 6 -5 1 -5 -13z"/>
<path d="M7737 360 c-3 -11 -1 -20 4 -20 5 0 9 8 10 18 0 14 2 14 9 -3 8 -19
9 -19 9 3 1 28 -25 30 -32 2z"/>
<path d="M7780 360 c0 -11 4 -20 9 -20 5 0 7 9 4 20 -3 11 -7 20 -9 20 -2 0
-4 -9 -4 -20z"/>
<path d="M7166 356 c3 -9 11 -16 16 -16 13 0 5 23 -10 28 -7 2 -10 -2 -6 -12z"/>
</g>
</svg>
